<?xml version="1.0" encoding="UTF-8"?>
<svg id="Livello_1" data-name="Livello 1" xmlns="http://www.w3.org/2000/svg" viewBox="0 0 1411.15 1035.66">
  <defs>
    <style>
      .cls-1 {
        fill: #fff;
      }
    </style>
  </defs>
  <path class="cls-1" d="M282.07,1012.94c-10.88,18.7-37.62,25.7-56.44,15.87-41.05-21.45-22.46-81.5,27.63-75.59,27.3,3.22,42.43,36.31,28.81,59.73ZM270.78,992.82c0-14.1-11.43-25.52-25.52-25.52s-25.52,11.43-25.52,25.52,11.43,25.52,25.52,25.52,25.52-11.43,25.52-25.52Z"/>
  <path class="cls-1" d="M737.57,948.51c.49-1.69,14.4-3.14,15.07,1.14l.25,74.41c-1.5,1.49-13.22.76-14.89-.47l-38.19-50.08v52.04c-3-.59-13.09,1.54-14.14-1.67l-.21-75.44,13.91.5c10.99,14.48,22.33,28.69,33.51,43.02,1.59,2.04,3.26,4.42,3.68,7.05l2.05-.53c-.1-.94-1.04-1.75-1.04-2.02v-47.96Z"/>
  <path class="cls-1" d="M895.57,984.76c0,22.51-18.25,40.75-40.75,40.75s-40.75-18.25-40.75-40.75,18.25-40.75,40.75-40.75,40.75,18.25,40.75,40.75ZM880.43,984.7c0-14.15-11.47-25.62-25.62-25.62s-25.62,11.47-25.62,25.62,11.47,25.62,25.62,25.62,25.62-11.47,25.62-25.62Z"/>
  <path class="cls-1" d="M661.99,987.6c0,22.47-18.22,40.69-40.69,40.69s-40.69-18.22-40.69-40.69,18.22-40.69,40.69-40.69,40.69,18.22,40.69,40.69ZM646.91,987.57c0-14.12-11.45-25.57-25.57-25.57s-25.57,11.45-25.57,25.57,11.45,25.57,25.57,25.57,25.57-11.45,25.57-25.57Z"/>
  <path class="cls-1" d="M98.77,956.16v13.23s-40.88,1.51-40.88,1.51c-1.33.93-1.43,13.29-.79,15.2.99,2.94,3.05,1.7,4.43,1.7h32.65c2.3,1.71.98,12.8-.48,13.87l-35.75,1.44v17.35l40.83-.45c3.53,2.27,1.75,9.75,1.87,13.54-.74.15-2.02,1.19-2.39,1.19h-56.12c-.28,0-.64.94-1.02.92l-1.53-1.44,1.1-17.34c-.33-17.49-3.17-40.05-1.16-57.19.17-1.49.13-2.62,1.58-3.52h57.66Z"/>
  <path class="cls-1" d="M1327.39,939.84c-.59,4.23,1.53,10.02-1.53,13.27h-39.29c-2.42,6.54-.08,12.8,0,19.39,1.11.4,2.24-1.02,2.54-1.02h35.21l.82,10.96-1.49,2.15-37.09,1.18v16.84l1.53,1.53h40.82c3.06,3.25.94,9.04,1.54,13.27l-59.06-.14-1.15-77.42h57.15Z"/>
  <path class="cls-1" d="M1184.53,1019.43h-15.82l-8.67-15.82-35.04-.34-7.78,16.71c-2.92.46-14.32,1.72-15.27-1.2-1.25-3.87,28.24-65.93,30.62-75.29,2.14-2.99,12.49-1.55,16.24-1.11l35.71,77.05ZM1153.92,989.83c.18-1.43-.09-2.73-.48-4.11-1.42-4.91-8.1-18.86-10.71-23.99-.49-.96-.64-2.42-2.07-2.51l-11.23,30.07c.66,3.53,20.8-.93,24.49.54Z"/>
  <path class="cls-1" d="M390.62,1001.57c3.23,19.52,33.45,19.64,35.74,1.04,1.89-15.32-1.57-34.16.12-49.88,1.06-3.25,12.06-1.04,15.17-1.68.25,16.24,2.45,34.39,1.05,50.55-3.44,39.77-66.11,37.99-68.03-.2-.52-10.36.39-22.11.44-32.49.03-5.05-1.69-11.4-.81-16.84h16.33v49.49Z"/>
  <path class="cls-1" d="M1352.92,992.91c1.3-.92,16.96,9.61,21.9,10.22,7.44.92,23.41-.75,17.74-11.63-5.65-10.85-37.4-6.75-40.62-26.73-5-31.06,37.97-32.18,56.67-19.87l-5.33,13.24c-6.18-.88-11.65-5.33-18.23-6.06-7.12-.79-18.71-.85-15.61,9.49,2.06,6.86,24.06,10.24,31.11,14.81,13.72,8.88,14.23,26.54.83,35.93-12.73,8.92-33.42,5.89-46.1-1.88-11.06-6.77-4.82-7.11-2.36-17.51Z"/>
  <path class="cls-1" d="M1052.67,942.16c10-1.19,25.9.63,32.74,8.61l-5.58,12.48c-6.22-5.09-32.13-12.66-33.9-1.25-1.72,11.06,23.35,13.78,30.76,17.82,11.5,6.27,14.77,20.68,7.26,31.39-11.65,16.62-45.53,11.83-58.49-1.66-.34-1.34,4.73-12.29,5.56-12.54,1.95-.57,7.35,4.89,9.96,6.28,8.58,4.57,32.44,9.21,29.24-6.79-.66-3.31-7.1-5.89-10.2-7.14-11.27-4.56-25.75-4.62-30.3-18.68-5.15-15.91,8.31-26.77,22.95-28.51Z"/>
  <path class="cls-1" d="M116.21,956.25c3.69-.08,14.48-2.85,16.76-.1l21.43,57.16c1.85.21,2-1.33,2.52-2.58,3.81-9.23,6.43-20.41,9.92-29.87,1.3-3.52,8.34-23.02,9.42-24.25,2.75-3.14,10.9-.21,14.98-2.42l2.4,1.46-31.65,77.61-15.78-.54c-9.4-21.81-17.62-44.14-26.84-66.02-1.79-4.24-5.22-5.13-3.17-10.43Z"/>
  <path class="cls-1" d="M936.05,991.88c-4.2,3.4-1.53,6.73-1.48,10.67.04,3.09.44,17.65-.49,18.98l-14.91.49-.89-1.19-.14-75.45,51.43-1.3c3.66,1.23,2.66,9.23,2.75,12.4-.2.67-2.3,1.72-2.58,1.72h-36.23v18.88c0,3.03,8.83.53,10.67.47,7.93-.25,15.96.14,23.88.18,1.27.79,2.37,12.66-.36,14.14h-31.63Z"/>
  <path class="cls-1" d="M460.01,964.33v-13.27s62.31-.57,62.31-.57l.81,1.23-.85,12.17-22.48.44.88,62.61c-1.11,3.37-5.37.81-7.51.86-1.48.03-8.67,2.19-8.67-.71v-62.76h-24.49Z"/>
  <path class="cls-1" d="M325.31,953.1v63.27s31.04-.91,31.04-.91c2.86.69,1.34,10.96,1.47,13.51l-2.41,1.67-43.8.9c-1.2-.42-1.41-1.31-1.61-2.44-1.4-8,.76-19.17-1.06-27.51,1.34-14.21-1.64-31.14-.01-44.99.17-1.49.13-2.62,1.58-3.52h14.8Z"/>
  <path class="cls-1" d="M1216.16,940.86l3.05,63.86c.73.61,1.29-.59,1.54-.59h31.12v14.29l-48.86-.12-1.14-77.44h14.29Z"/>
  <rect class="cls-1" x="511" y="980.64" width="77.61" height="16.41" transform="translate(-439.24 1538.3) rotate(-89.98)"/>
  <path class="cls-1" d="M295.72,850.03l15.43-95.28c33.01-204.05,61.16-407.13,119.98-605.56,12.74-42.97,27.51-85.4,41.4-127.99,2.19-6.72,3.18-16.49,7.88-21.19-10.06,62.97-19.79,126.02-29.88,189-33.91,211.57-66.91,423.18-102.52,634.25-.97,5.74-.9,24.6-6.91,25.75-7.36,1.41-21.23-.31-29.61-.02-4.98.17-10.45,1.98-15.77,1.05Z"/>
  <g>
    <polygon class="cls-1" points="1008.5 525.53 1005.96 418.38 877.37 420.42 878.25 527.42 831.45 528.6 828.34 279.04 828.84 276.48 830.94 275.52 874.86 275.47 877.48 379.5 1004.94 377.57 1003.92 273.5 1051.88 272.46 1053.91 525.53 1008.5 525.53"/>
    <path class="cls-1" d="M727.05,318.08l-26.87,26.76c-13.19-11.37-27.85-21.24-45.06-25.14-69.35-15.72-125.53,35.81-110.77,106.69,11.85,56.89,74.59,80.13,125.85,59.84,4.57-1.81,12.64-4.79,13.33-10.14,1.1-8.45-.99-18.37-1.11-26.54-.24-15.83-.11-31.75.49-47.56l43.48-1.52c1.06.78.92,1.94,1.03,3.07,1.73,17.13.77,42.2,1.01,60.21.1,7.61,1.28,30.67-.5,36.32-1.9,6.05-28.57,20.13-35.28,22.89-104.25,42.86-218.96-28.79-195.61-146.63,16.76-84.6,115.18-123.43,190.89-90.46,14.7,6.4,30.52,16.46,40.21,29.1l-1.09,3.1Z"/>
  </g>
  <g>
    <path class="cls-1" d="M535.31,591.14c22.66-1.75,53.36,2.16,74.38,10.74,3.29,1.34,18.92,8.76,19.57,11.12l-12.63,36c-.92,1.35-1.21,1.14-2.54.54-9.75-4.45-18.18-9.91-28.79-13.06-24.45-7.26-80.12-12.71-90.08,18.67-6.5,20.48,8,31.01,25.04,37.2,44.4,16.11,117.05,14.46,122.4,76.59,4.1,47.62-37.01,74.48-79.19,79.97-39.58,5.16-88.07-2.78-119.66-28.05l15.82-36.06c2.56-.75,3.8,2.38,5.54,3.46,29.05,18.01,76.96,30.73,109.83,17.08,28.57-11.87,28.22-41.85-.7-53.75-43.53-17.92-123.44-13.97-127.59-78.54-3.39-52.8,41.89-78.27,88.61-81.89Z"/>
    <g>
      <path class="cls-1" d="M1388.62,582.68l4.96,250.89c-1.38,2.21-33.79,1.07-38.69.71l-141.27-165.89,3.44,166.77-2.44,1.61-44.45.58-.81-1.23-4.23-250.38c13.45,1.57,27.38-3.57,40.36.98l139.74,165.37c-1.11-13.36-.23-26.92-.46-40.36-.63-37.67-1.28-75.49-2.04-113.27-.1-5.21-3.4-11.33,1.49-15.77h44.39Z"/>
      <path class="cls-1" d="M969.01,585.05c86.25-1.87,150.86,66.06,136.69,152.99-21.65,132.81-225.79,144.44-263.53,15.05-25.73-88.21,37.01-166.1,126.84-168.05ZM1060.17,714.7c0-48.79-39.55-88.35-88.35-88.35s-88.35,39.55-88.35,88.35,39.55,88.35,88.35,88.35,88.35-39.55,88.35-88.35Z"/>
      <polygon class="cls-1" points="785.53 591.86 746.76 843.91 698.79 843.91 739.61 591.86 785.53 591.86"/>
    </g>
  </g>
  <polygon class="cls-1" points="33.41 535.81 83.84 535.81 83.84 428.96 207.49 428.96 207.49 535.81 260.32 535.81 255.91 281.69 207.89 281.69 207.89 386.14 80.24 386.14 78.63 281.69 29.81 281.69 33.41 535.81"/>
  <polygon class="cls-1" points="0 600.39 53.42 600.39 138.66 791.27 220.3 600.39 267.12 600.39 162.57 850.5 113.35 850.5 0 600.39"/>
</svg>